<?xml version="1.0" encoding="utf-8"?>
<!-- Generator: Adobe Illustrator 16.0.0, SVG Export Plug-In . SVG Version: 6.00 Build 0)  -->
<!DOCTYPE svg PUBLIC "-//W3C//DTD SVG 1.1//EN" "http://www.w3.org/Graphics/SVG/1.1/DTD/svg11.dtd">
<svg version="1.1" xmlns="http://www.w3.org/2000/svg" xmlns:xlink="http://www.w3.org/1999/xlink" x="0px" y="0px" width="500px"
	 height="500px" viewBox="0 0 500 500" style="enable-background:new 0 0 500 500;" xml:space="preserve">
<style type="text/css">
<![CDATA[
	.st0{fill:#E02828;}
	.st1{fill:#F9D3D3;}
	.st2{fill:#F9E9E9;}
	.st3{fill:#FF2125;}
	.st4{fill:#FFFFFF;}
]]>
</style>
<g id="Layer_1">
	<rect class="st3" width="500" height="500"/>
	<rect x="-495.6" y="83.4" class="st0" width="333.2" height="333.2"/>
	<g>
		<g>
			<path class="st2" d="M248.5,133.3h-16.7l-11.2-27.5h18.8L248.5,133.3z"/>
			<path class="st2" d="M259.2,141.5H226l-17.1-43.9h36.8L259.2,141.5z M239.8,128.6h0.4l-2.8-10.2h-1.3L239.8,128.6z"/>
		</g>
		<g>
			<path class="st1" d="M370,204c-17.3,0-31.6,6-42.9,18c-11.3,12-17,26.8-17,44.5v119.5h-34.2V175.8h34.2v21.8
				c11.2-8.7,21-14.8,29.3-18.1c10.1-4.5,21.3-6.7,33.6-6.7c28.5,0,51.8,11.2,70,33.6l-29.6,16.1C402,210.2,387.5,204,370,204z"/>
			<path class="st1" d="M323.6,399.4h-61.3V162.3h61.3v9.9c3.7-2.1,7.3-3.8,10.7-5.2c11.4-5.1,24.5-7.7,38.7-7.7
				c32.6,0,59.7,13,80.5,38.6l10.2,12.6l-53.1,28.9l-7.1-7.7c-8.8-9.5-19.8-14.1-33.5-14.1c-13.5,0-24.3,4.5-33.1,13.7
				c-9,9.5-13.3,21-13.3,35.2V399.4z M289.4,372.4h7.2v-106c0-21.2,7-39.3,20.7-53.8c13.9-14.7,31.7-22.2,52.7-22.2
				c17.6,0,32.8,5.2,45.5,15.5l5.4-3c-13.4-11.2-29.2-16.7-47.9-16.7c-10.4,0-19.9,1.9-28.2,5.5c-7.5,3.1-16.3,8.5-26.5,16.4
				l-21.8,17v-35.9h-7.2V372.4z"/>
		</g>
		<g>
			<path class="st4" d="M163.2,388.9c-30.9,0-57.5-10.4-79.9-31.2c-22.4-20.8-33.6-46.3-33.6-76.5c0-30.2,11.2-55.8,33.6-76.9
				c22.4-21,49-31.5,79.9-31.5c31.1,0,57.9,10.5,80.6,31.5c22.6,21,33.9,46.7,33.9,76.9c0,30.2-11.3,55.7-33.9,76.5
				C221.1,378.5,194.3,388.9,163.2,388.9z M163.2,204c-22.1,0-41.2,7.5-57,22.5c-15.9,15-23.8,33.2-23.8,54.7
				c0.2,21.5,8.3,39.5,24.2,54c15.9,14.5,34.8,21.8,56.7,21.8c22.2,0,41.2-7.3,57.2-21.8c16-14.5,24.1-32.6,24.3-54
				c0.2-21.5-7.8-39.7-24-54.7C204.5,211.5,185.3,204,163.2,204z"/>
			<path class="st4" d="M163.2,402.4c-34.3,0-64.2-11.7-89.1-34.8c-25.1-23.4-37.9-52.4-37.9-86.4c0-33.9,12.7-63.1,37.8-86.7
				c24.9-23.4,54.9-35.2,89.1-35.2c34.5,0,64.7,11.8,89.8,35.2c25.4,23.6,38.2,52.8,38.2,86.8c0,34-12.9,63.1-38.3,86.5
				C227.8,390.7,197.6,402.4,163.2,402.4z M163.2,186.3c-27.6,0-50.7,9.1-70.6,27.9c-19.7,18.5-29.3,40.5-29.3,67
				c0,26.5,9.6,48.3,29.2,66.6c20,18.6,43.1,27.6,70.7,27.6c27.8,0,51.2-9,71.4-27.6c19.9-18.3,29.5-40.1,29.5-66.6
				c0-26.5-9.7-48.4-29.6-67C214.3,195.4,191,186.3,163.2,186.3z M163.2,370.6c-25.3,0-47.5-8.5-65.8-25.4
				c-18.7-17.1-28.3-38.6-28.6-63.9c0-25.4,9.4-47.1,28.1-64.7c18.4-17.4,40.7-26.2,66.3-26.2c25.6,0,48,8.8,66.7,26.1
				c19.1,17.6,28.6,39.4,28.3,64.8c-0.3,25.3-9.9,46.8-28.8,63.9C211,362,188.7,370.6,163.2,370.6z M163.2,217.5
				c-18.7,0-34.4,6.1-47.8,18.8c-13.2,12.4-19.6,27.1-19.6,44.9c0.2,17.6,6.7,32.1,19.8,44.1c13.4,12.3,29,18.3,47.6,18.3
				c18.9,0,34.6-6,48.1-18.3c13.2-12,19.7-26.5,19.9-44.2c0.2-17.6-6.2-32.2-19.7-44.6C197.8,223.7,182,217.5,163.2,217.5z"/>
		</g>
	</g>
	<rect x="520" y="220" class="st3" width="60" height="60"/>
	<text transform="matrix(1 0 0 1 -1353.835 -101.1494)" class="st4" style="font-family:'Swatchit'; font-size:308.5302;">O’R</text>
	
		<image style="overflow:visible;" width="250" height="250" xlink:href="9739BE23.jpg"  transform="matrix(1 0 0 1 -639.4829 347.5156)">
	</image>
	<g>
		<g>
			<path class="st2" d="M549.8,236.3h-2l-1.3-3.2h2.2L549.8,236.3z"/>
			<path class="st2" d="M551.1,237.3h-3.9l-2-5.2h4.3L551.1,237.3z M548.8,235.7L548.8,235.7l-0.3-1.2h-0.2L548.8,235.7z"/>
		</g>
		<g>
			<path class="st1" d="M564.1,244.6c-2,0-3.7,0.7-5,2.1c-1.3,1.4-2,3.1-2,5.2v14h-4v-24.7h4v2.6c1.3-1,2.5-1.7,3.4-2.1
				c1.2-0.5,2.5-0.8,4-0.8c3.3,0,6.1,1.3,8.2,3.9l-3.5,1.9C567.9,245.3,566.2,244.6,564.1,244.6z"/>
			<path class="st1" d="M558.7,267.6h-7.2v-27.9h7.2v1.2c0.4-0.2,0.9-0.4,1.3-0.6c1.3-0.6,2.9-0.9,4.5-0.9c3.8,0,7,1.5,9.5,4.5
				l1.2,1.5l-6.2,3.4l-0.8-0.9c-1-1.1-2.3-1.7-3.9-1.7c-1.6,0-2.9,0.5-3.9,1.6c-1.1,1.1-1.6,2.5-1.6,4.1V267.6z M554.6,264.4h0.8
				v-12.4c0-2.5,0.8-4.6,2.4-6.3c1.6-1.7,3.7-2.6,6.2-2.6c2.1,0,3.9,0.6,5.3,1.8l0.6-0.3c-1.6-1.3-3.4-2-5.6-2
				c-1.2,0-2.3,0.2-3.3,0.7c-0.9,0.4-1.9,1-3.1,1.9l-2.6,2v-4.2h-0.8V264.4z"/>
		</g>
		<g>
			<path class="st4" d="M539.8,266.3c-3.6,0-6.8-1.2-9.4-3.7c-2.6-2.4-3.9-5.4-3.9-9c0-3.5,1.3-6.6,3.9-9c2.6-2.5,5.8-3.7,9.4-3.7
				c3.7,0,6.8,1.2,9.5,3.7c2.7,2.5,4,5.5,4,9c0,3.5-1.3,6.5-4,9C546.6,265.1,543.5,266.3,539.8,266.3z M539.8,244.6
				c-2.6,0-4.8,0.9-6.7,2.6c-1.9,1.8-2.8,3.9-2.8,6.4c0,2.5,1,4.6,2.8,6.3c1.9,1.7,4.1,2.6,6.7,2.6c2.6,0,4.8-0.9,6.7-2.6
				c1.9-1.7,2.8-3.8,2.9-6.3c0-2.5-0.9-4.7-2.8-6.4C544.7,245.5,542.4,244.6,539.8,244.6z"/>
			<path class="st4" d="M539.8,267.9c-4,0-7.5-1.4-10.5-4.1c-3-2.7-4.4-6.2-4.4-10.2c0-4,1.5-7.4,4.4-10.2c2.9-2.7,6.4-4.1,10.5-4.1
				c4,0,7.6,1.4,10.5,4.1c3,2.8,4.5,6.2,4.5,10.2c0,4-1.5,7.4-4.5,10.2C547.4,266.5,543.8,267.9,539.8,267.9z M539.8,242.5
				c-3.2,0-6,1.1-8.3,3.3c-2.3,2.2-3.4,4.8-3.4,7.9c0,3.1,1.1,5.7,3.4,7.8c2.3,2.2,5.1,3.2,8.3,3.2c3.3,0,6-1.1,8.4-3.2
				c2.3-2.1,3.5-4.7,3.5-7.8c0-3.1-1.1-5.7-3.5-7.9C545.8,243.6,543.1,242.5,539.8,242.5z M539.8,264.2c-3,0-5.6-1-7.7-3
				c-2.2-2-3.3-4.5-3.4-7.5c0-3,1.1-5.5,3.3-7.6c2.2-2,4.8-3.1,7.8-3.1c3,0,5.6,1,7.8,3.1c2.2,2.1,3.4,4.6,3.3,7.6
				c0,3-1.2,5.5-3.4,7.5C545.4,263.2,542.8,264.2,539.8,264.2z M539.8,246.2c-2.2,0-4,0.7-5.6,2.2c-1.5,1.5-2.3,3.2-2.3,5.3
				c0,2.1,0.8,3.8,2.3,5.2c1.6,1.4,3.4,2.1,5.6,2.1c2.2,0,4.1-0.7,5.7-2.1c1.6-1.4,2.3-3.1,2.3-5.2c0-2.1-0.7-3.8-2.3-5.2
				C543.9,246.9,542,246.2,539.8,246.2z"/>
		</g>
	</g>
</g>
<g id="Layer_2">
</g>
</svg>
